Amol Palekar ... Chandranath aka Chander 
Shabana Azmi ... Sheila 
Ashalata ... Sidheshwari 
Girish Karnad ... Advocate Harish 
Utpal Dutt ... Advocate 
Bharati Achrekar ... Naintara 
Moonesha ... Neela 
 


Complete Name                    : Apne Paraye 1980 DvDrip 1.40GB AVI ~ Family | Comedy ~ [RdY]
General
Format                           : AVI
Format/Info                      : Audio Video Interleave
File size                        : 1.40 GiB
Duration                         : 2h 11mn
Overall bit rate                 : 1 525 Kbps
Writing application              : VirtualDubMod 1.5.10.2 (build 2540/release)
Writing library                  : VirtualDubMod build 2540/release

Video
Format                           : MPEG-4 Visual
Format profile                   : Streaming Video@L1
Format settings, BVOP            : Yes
Format settings, QPel            : No
Format settings, GMC             : No warppoints
Format settings, Matrix          : Default
Muxing mode                      : Packed bitstream
Codec ID                         : XVID
Codec ID/Hint                    : XviD
Duration                         : 2h 11mn
Bit rate                         : 1 289 Kbps
Width                            : 640 pixels
Height                           : 480 pixels
Display aspect ratio             : 4/3
Frame rate                       : 29.970 fps
Resolution                       : 24 bits
Colorimetry                      : 4:2:0
Scan type                        : Progressive
Bits/(Pixel*Frame)               : 0.140
Stream size                      : 1.18 GiB (85%)
Writing library                  : XviD 1.1.2 (UTC 2006-11-01)

Audio
Format                           : MPEG Audio
Codec ID                         : 55
Codec ID/Hint                    : MP3
Duration                         : 2h 11mn
Bit rate                         : 224 Kbps
Channel(s)                       : 2 channels
Sampling rate                    : 48.0 KHz
Stream size                      : 211 MiB (15%)
Alignment                        : Aligned on interleaves
Interleave, duration             : 33 ms (1.00 video frame)
Interleave, preload duration     : 504 



 
Basu Chatterjee ... Director 
Lata Mangeshkar ... Singer 
Asha Bhosle ... Singer 
K.J. Yesudas ... Singer 
Kishore Kumar ... Singer 
Bappi Lahiri ... Music Director 
K.K. Mahajan ... Cinematography 
Mushir Alam ... producer (as Mushir-Alam) 
Mohammad Riaz ... producer (as Mushir-Alam) 
 

 
